<svg xmlns="http://www.w3.org/2000/svg" xmlns:xlink="http://www.w3.org/1999/xlink" version="1.1" width="2324" height="1108" name="phyla_branchl_bs_sf _condensed50.svg" y="0" viewBox="0 0 2324 1108">
<polyline points="2324,1108 0,1108 0,0 2324,0 2324,1108" fill="white" />
<text x="2112" y="32" fill="#000000" font-size="15" font-family="default" > CryptonV-3 OL 1p</text>
<polyline points="1995,35 1995,28 2110,28" fill="none" stroke="#000000" stroke-width="1" stroke-linecap="square"/>
<text x="2112" y="47" fill="#000000" font-size="15" font-family="default" > CryptV-10 CFl parRan-1</text>
<polyline points="1995,36 1995,43 2110,43" fill="none" stroke="#000000" stroke-width="1" stroke-linecap="square"/>
<polyline points="1880,46 1880,35 1995,35" fill="none" stroke="#000000" stroke-width="1" stroke-linecap="square"/>
<text x="2112" y="62" fill="#000000" font-size="15" font-family="default" > CryptV-1 CGi gadMor-1</text>
<polyline points="1880,47 1880,58 2110,58" fill="none" stroke="#000000" stroke-width="1" stroke-linecap="square"/>
<polyline points="1765,59 1765,46 1880,46" fill="none" stroke="#000000" stroke-width="1" stroke-linecap="square"/>
<text x="2112" y="77" fill="#000000" font-size="15" font-family="default" > CryptV-1 CGi cypCar-1</text>
<polyline points="1765,60 1765,73 2110,73" fill="none" stroke="#000000" stroke-width="1" stroke-linecap="square"/>
<polyline points="1650,73 1650,59 1765,59" fill="none" stroke="#000000" stroke-width="1" stroke-linecap="square"/>
<text x="2112" y="92" fill="#000000" font-size="15" font-family="default" > CryptV-1 CGi gadmor-2</text>
<polyline points="1650,74 1650,88 2110,88" fill="none" stroke="#000000" stroke-width="1" stroke-linecap="square"/>
<polyline points="1535,88 1535,73 1650,73" fill="none" stroke="#000000" stroke-width="1" stroke-linecap="square"/>
<text x="2112" y="107" fill="#000000" font-size="15" font-family="default" > CryptV-10 CFl gouWil-1</text>
<polyline points="1535,89 1535,103 2110,103" fill="none" stroke="#000000" stroke-width="1" stroke-linecap="square"/>
<polyline points="1420,103 1420,88 1535,88" fill="none" stroke="#000000" stroke-width="1" stroke-linecap="square"/>
<text x="2112" y="122" fill="#000000" font-size="15" font-family="default" > CryptonV-2 OL 1p</text>
<polyline points="1420,104 1420,118 2110,118" fill="none" stroke="#000000" stroke-width="1" stroke-linecap="square"/>
<polyline points="1305,125 1305,103 1420,103" fill="none" stroke="#000000" stroke-width="1" stroke-linecap="square"/>
<text x="2112" y="137" fill="#000000" font-size="15" font-family="default" > CryptonV-1 SSa 1p</text>
<polyline points="1650,147 1650,133 2110,133" fill="none" stroke="#000000" stroke-width="1" stroke-linecap="square"/>
<text x="2112" y="152" fill="#000000" font-size="15" font-family="default" > CryptV-1 CGi oryLat-1</text>
<polyline points="1765,161 1765,148 2110,148" fill="none" stroke="#000000" stroke-width="1" stroke-linecap="square"/>
<text x="2112" y="167" fill="#000000" font-size="15" font-family="default" > CryptV-10 Cfl anaTes-1 L</text>
<polyline points="1880,174 1880,163 2110,163" fill="none" stroke="#000000" stroke-width="1" stroke-linecap="square"/>
<text x="2112" y="182" fill="#000000" font-size="15" font-family="default" > CryptonV-1 DR 1p</text>
<polyline points="1995,185 1995,178 2110,178" fill="none" stroke="#000000" stroke-width="1" stroke-linecap="square"/>
<text x="2112" y="197" fill="#000000" font-size="15" font-family="default" > CryptV-1 Cgi danRer-1</text>
<polyline points="1995,186 1995,193 2110,193" fill="none" stroke="#000000" stroke-width="1" stroke-linecap="square"/>
<polyline points="1880,175 1880,185 1995,185" fill="none" stroke="#000000" stroke-width="1" stroke-linecap="square"/>
<polyline points="1765,162 1765,174 1880,174" fill="none" stroke="#000000" stroke-width="1" stroke-linecap="square"/>
<polyline points="1650,148 1650,161 1765,161" fill="none" stroke="#000000" stroke-width="1" stroke-linecap="square"/>
<polyline points="1305,126 1305,147 1650,147" fill="none" stroke="#000000" stroke-width="1" stroke-linecap="square"/>
<polyline points="1190,172 1190,125 1305,125" fill="none" stroke="#000000" stroke-width="1" stroke-linecap="square"/>
<text x="2112" y="212" fill="#000000" font-size="15" font-family="default" > CryptonV-4 OL 1p</text>
<polyline points="1880,219 1880,208 2110,208" fill="none" stroke="#000000" stroke-width="1" stroke-linecap="square"/>
<text x="2112" y="227" fill="#000000" font-size="15" font-family="default" > CryptV-1 CGi sphOrb-1</text>
<polyline points="1995,230 1995,223 2110,223" fill="none" stroke="#000000" stroke-width="1" stroke-linecap="square"/>
<text x="2112" y="242" fill="#000000" font-size="15" font-family="default" > CryptV-1 CGi takRub-1</text>
<polyline points="1995,231 1995,238 2110,238" fill="none" stroke="#000000" stroke-width="1" stroke-linecap="square"/>
<polyline points="1880,220 1880,230 1995,230" fill="none" stroke="#000000" stroke-width="1" stroke-linecap="square"/>
<polyline points="1190,173 1190,219 1880,219" fill="none" stroke="#000000" stroke-width="1" stroke-linecap="square"/>
<polyline points="1075,218 1075,172 1190,172" fill="none" stroke="#000000" stroke-width="1" stroke-linecap="square"/>
<text x="2112" y="257" fill="#000000" font-size="15" font-family="default" > CryptonV-6 OL 1p</text>
<polyline points="1880,264 1880,253 2110,253" fill="none" stroke="#000000" stroke-width="1" stroke-linecap="square"/>
<text x="2112" y="272" fill="#000000" font-size="15" font-family="default" > CryptonV-7 OL 1p</text>
<polyline points="1995,275 1995,268 2110,268" fill="none" stroke="#000000" stroke-width="1" stroke-linecap="square"/>
<text x="2112" y="287" fill="#000000" font-size="15" font-family="default" > CryptonV-5 OL 1p</text>
<polyline points="1995,276 1995,283 2110,283" fill="none" stroke="#000000" stroke-width="1" stroke-linecap="square"/>
<polyline points="1880,265 1880,275 1995,275" fill="none" stroke="#000000" stroke-width="1" stroke-linecap="square"/>
<polyline points="1075,219 1075,264 1880,264" fill="none" stroke="#000000" stroke-width="1" stroke-linecap="square"/>
<polyline points="960,261 960,218 1075,218" fill="none" stroke="#000000" stroke-width="1" stroke-linecap="square"/>
<text x="2112" y="302" fill="#000000" font-size="15" font-family="default" > CryptonF-5 PI 1p</text>
<polyline points="1995,305 1995,298 2110,298" fill="none" stroke="#000000" stroke-width="1" stroke-linecap="square"/>
<text x="2112" y="317" fill="#000000" font-size="15" font-family="default" > CryptV-1 CGI gadMor-3</text>
<polyline points="1995,306 1995,313 2110,313" fill="none" stroke="#000000" stroke-width="1" stroke-linecap="square"/>
<polyline points="960,262 960,305 1995,305" fill="none" stroke="#000000" stroke-width="1" stroke-linecap="square"/>
<polyline points="845,294 845,261 960,261" fill="none" stroke="#000000" stroke-width="1" stroke-linecap="square"/>
<text x="2112" y="332" fill="#000000" font-size="15" font-family="default" > CryptonV-1 CGi 1p</text>
<polyline points="845,295 845,328 2110,328" fill="none" stroke="#000000" stroke-width="1" stroke-linecap="square"/>
<polyline points="730,324 730,294 845,294" fill="none" stroke="#000000" stroke-width="1" stroke-linecap="square"/>
<text x="2112" y="347" fill="#000000" font-size="15" font-family="default" > CryptonV-3 DR 1p</text>
<polyline points="1880,354 1880,343 2110,343" fill="none" stroke="#000000" stroke-width="1" stroke-linecap="square"/>
<text x="2112" y="362" fill="#000000" font-size="15" font-family="default" > CryptonV-2 DR 1p</text>
<polyline points="1995,365 1995,358 2110,358" fill="none" stroke="#000000" stroke-width="1" stroke-linecap="square"/>
<text x="2112" y="377" fill="#000000" font-size="15" font-family="default" > CryptV-11 CFl anaTes-2 S</text>
<polyline points="1995,366 1995,373 2110,373" fill="none" stroke="#000000" stroke-width="1" stroke-linecap="square"/>
<polyline points="1880,355 1880,365 1995,365" fill="none" stroke="#000000" stroke-width="1" stroke-linecap="square"/>
<polyline points="730,325 730,354 1880,354" fill="none" stroke="#000000" stroke-width="1" stroke-linecap="square"/>
<polyline points="615,356 615,324 730,324" fill="none" stroke="#000000" stroke-width="1" stroke-linecap="square"/>
<text x="2112" y="392" fill="#000000" font-size="15" font-family="default" > CryptonV-2 CTe 1p</text>
<polyline points="615,357 615,388 2110,388" fill="none" stroke="#000000" stroke-width="1" stroke-linecap="square"/>
<polyline points="500,398 500,356 615,356" fill="none" stroke="#000000" stroke-width="1" stroke-linecap="square"/>
<text x="2112" y="407" fill="#000000" font-size="15" font-family="default" > CryptonS-1 PS 1p</text>
<polyline points="1995,410 1995,403 2110,403" fill="none" stroke="#000000" stroke-width="1" stroke-linecap="square"/>
<text x="2112" y="422" fill="#000000" font-size="15" font-family="default" > CryptonS-1 ALai 1p</text>
<polyline points="1995,411 1995,418 2110,418" fill="none" stroke="#000000" stroke-width="1" stroke-linecap="square"/>
<polyline points="1880,421 1880,410 1995,410" fill="none" stroke="#000000" stroke-width="1" stroke-linecap="square"/>
<text x="2112" y="437" fill="#000000" font-size="15" font-family="default" > CryptV-1 CGi spaAur-1 S</text>
<polyline points="1880,422 1880,433 2110,433" fill="none" stroke="#000000" stroke-width="1" stroke-linecap="square"/>
<polyline points="1650,441 1650,421 1880,421" fill="none" stroke="#000000" stroke-width="1" stroke-linecap="square"/>
<text x="2112" y="452" fill="#000000" font-size="15" font-family="default" > CryptonV-N5 DR 1p</text>
<polyline points="1765,461 1765,448 2110,448" fill="none" stroke="#000000" stroke-width="1" stroke-linecap="square"/>
<text x="2112" y="467" fill="#000000" font-size="15" font-family="default" > CryptV-11 CFl anaTes-1 S</text>
<polyline points="1880,474 1880,463 2110,463" fill="none" stroke="#000000" stroke-width="1" stroke-linecap="square"/>
<text x="2112" y="482" fill="#000000" font-size="15" font-family="default" > CryptV-10 CFl anaTes-1 S</text>
<polyline points="1995,485 1995,478 2110,478" fill="none" stroke="#000000" stroke-width="1" stroke-linecap="square"/>
<text x="2112" y="497" fill="#000000" font-size="15" font-family="default" > CryptV-12 CFl anaTes-1 S</text>
<polyline points="1995,486 1995,493 2110,493" fill="none" stroke="#000000" stroke-width="1" stroke-linecap="square"/>
<polyline points="1880,475 1880,485 1995,485" fill="none" stroke="#000000" stroke-width="1" stroke-linecap="square"/>
<polyline points="1765,462 1765,474 1880,474" fill="none" stroke="#000000" stroke-width="1" stroke-linecap="square"/>
<polyline points="1650,442 1650,461 1765,461" fill="none" stroke="#000000" stroke-width="1" stroke-linecap="square"/>
<polyline points="500,399 500,441 1650,441" fill="none" stroke="#000000" stroke-width="1" stroke-linecap="square"/>
<polyline points="385,456 385,398 500,398" fill="none" stroke="#000000" stroke-width="1" stroke-linecap="square"/>
<text x="2112" y="512" fill="#000000" font-size="15" font-family="default" > CryptonV-1 BTa 1p</text>
<polyline points="1995,515 1995,508 2110,508" fill="none" stroke="#000000" stroke-width="1" stroke-linecap="square"/>
<text x="2112" y="527" fill="#000000" font-size="15" font-family="default" > CryptV-1 CGi spaAur-1 L</text>
<polyline points="1995,516 1995,523 2110,523" fill="none" stroke="#000000" stroke-width="1" stroke-linecap="square"/>
<polyline points="385,457 385,515 1995,515" fill="none" stroke="#000000" stroke-width="1" stroke-linecap="square"/>
<polyline points="270,515 270,456 385,456" fill="none" stroke="#000000" stroke-width="1" stroke-linecap="square"/>
<text x="2112" y="542" fill="#000000" font-size="15" font-family="default" > CryptonV-2 CFl 1p</text>
<polyline points="1995,545 1995,538 2110,538" fill="none" stroke="#000000" stroke-width="1" stroke-linecap="square"/>
<text x="2112" y="557" fill="#000000" font-size="15" font-family="default" > CryptonV-6 CFl 1p</text>
<polyline points="1995,546 1995,553 2110,553" fill="none" stroke="#000000" stroke-width="1" stroke-linecap="square"/>
<polyline points="1190,575 1190,545 1995,545" fill="none" stroke="#000000" stroke-width="1" stroke-linecap="square"/>
<text x="2112" y="572" fill="#000000" font-size="15" font-family="default" > CryptonV-3 CFl 1p</text>
<polyline points="1995,575 1995,568 2110,568" fill="none" stroke="#000000" stroke-width="1" stroke-linecap="square"/>
<text x="2112" y="587" fill="#000000" font-size="15" font-family="default" > CryptonV-2 HSal 1p</text>
<polyline points="1995,576 1995,583 2110,583" fill="none" stroke="#000000" stroke-width="1" stroke-linecap="square"/>
<polyline points="1305,606 1305,575 1995,575" fill="none" stroke="#000000" stroke-width="1" stroke-linecap="square"/>
<text x="2112" y="602" fill="#000000" font-size="15" font-family="default" > CryptonV-11 CFl 1p</text>
<polyline points="1995,605 1995,598 2110,598" fill="none" stroke="#000000" stroke-width="1" stroke-linecap="square"/>
<text x="2112" y="617" fill="#000000" font-size="15" font-family="default" > CryptonV-3 HSal 1p</text>
<polyline points="1995,606 1995,613 2110,613" fill="none" stroke="#000000" stroke-width="1" stroke-linecap="square"/>
<polyline points="1420,637 1420,605 1995,605" fill="none" stroke="#000000" stroke-width="1" stroke-linecap="square"/>
<text x="2112" y="632" fill="#000000" font-size="15" font-family="default" > CryptonV-10 CFl 1p</text>
<polyline points="1995,635 1995,628 2110,628" fill="none" stroke="#000000" stroke-width="1" stroke-linecap="square"/>
<text x="2112" y="647" fill="#000000" font-size="15" font-family="default" > CryptonV-5 CFl 1p</text>
<polyline points="1995,636 1995,643 2110,643" fill="none" stroke="#000000" stroke-width="1" stroke-linecap="square"/>
<polyline points="1880,646 1880,635 1995,635" fill="none" stroke="#000000" stroke-width="1" stroke-linecap="square"/>
<text x="2112" y="662" fill="#000000" font-size="15" font-family="default" > CryptonV-8 CFl 1p</text>
<polyline points="1880,647 1880,658 2110,658" fill="none" stroke="#000000" stroke-width="1" stroke-linecap="square"/>
<polyline points="1535,670 1535,646 1880,646" fill="none" stroke="#000000" stroke-width="1" stroke-linecap="square"/>
<text x="2112" y="677" fill="#000000" font-size="15" font-family="default" > CryptonV-7 CFl 1p</text>
<polyline points="1650,695 1650,673 2110,673" fill="none" stroke="#000000" stroke-width="1" stroke-linecap="square"/>
<text x="2112" y="692" fill="#000000" font-size="15" font-family="default" > CryptonV-12 CFl 1p</text>
<polyline points="1995,695 1995,688 2110,688" fill="none" stroke="#000000" stroke-width="1" stroke-linecap="square"/>
<text x="2112" y="707" fill="#000000" font-size="15" font-family="default" > CryptonV-4 CFl 1p</text>
<polyline points="1995,696 1995,703 2110,703" fill="none" stroke="#000000" stroke-width="1" stroke-linecap="square"/>
<polyline points="1765,717 1765,695 1995,695" fill="none" stroke="#000000" stroke-width="1" stroke-linecap="square"/>
<text x="2112" y="722" fill="#000000" font-size="15" font-family="default" > CryptonV-1 CFl 1p</text>
<polyline points="1995,725 1995,718 2110,718" fill="none" stroke="#000000" stroke-width="1" stroke-linecap="square"/>
<text x="2112" y="737" fill="#000000" font-size="15" font-family="default" > CryptonV-1 HSal 1p</text>
<polyline points="1995,726 1995,733 2110,733" fill="none" stroke="#000000" stroke-width="1" stroke-linecap="square"/>
<polyline points="1880,740 1880,725 1995,725" fill="none" stroke="#000000" stroke-width="1" stroke-linecap="square"/>
<text x="2112" y="752" fill="#000000" font-size="15" font-family="default" > CryptonV-9 CFl 1p</text>
<polyline points="1995,755 1995,748 2110,748" fill="none" stroke="#000000" stroke-width="1" stroke-linecap="square"/>
<text x="2112" y="767" fill="#000000" font-size="15" font-family="default" > CryptonV-4 HSal 1p</text>
<polyline points="1995,756 1995,763 2110,763" fill="none" stroke="#000000" stroke-width="1" stroke-linecap="square"/>
<polyline points="1880,741 1880,755 1995,755" fill="none" stroke="#000000" stroke-width="1" stroke-linecap="square"/>
<polyline points="1765,718 1765,740 1880,740" fill="none" stroke="#000000" stroke-width="1" stroke-linecap="square"/>
<polyline points="1650,696 1650,717 1765,717" fill="none" stroke="#000000" stroke-width="1" stroke-linecap="square"/>
<polyline points="1535,671 1535,695 1650,695" fill="none" stroke="#000000" stroke-width="1" stroke-linecap="square"/>
<polyline points="1420,638 1420,670 1535,670" fill="none" stroke="#000000" stroke-width="1" stroke-linecap="square"/>
<polyline points="1305,607 1305,637 1420,637" fill="none" stroke="#000000" stroke-width="1" stroke-linecap="square"/>
<polyline points="1190,576 1190,606 1305,606" fill="none" stroke="#000000" stroke-width="1" stroke-linecap="square"/>
<polyline points="270,516 270,575 1190,575" fill="none" stroke="#000000" stroke-width="1" stroke-linecap="square"/>
<polyline points="155,646 155,515 270,515" fill="none" stroke="#000000" stroke-width="1" stroke-linecap="square"/>
<text x="2112" y="782" fill="#000000" font-size="15" font-family="default" > CryptV-11 CFl anaTes-2 L</text>
<polyline points="155,647 155,778 2110,778" fill="none" stroke="#000000" stroke-width="1" stroke-linecap="square"/>
<polyline points="40,744 40,646 155,646" fill="none" stroke="#000000" stroke-width="1" stroke-linecap="square"/>
<text x="2112" y="797" fill="#000000" font-size="15" font-family="default" > CryptonA-1 LG 1p</text>
<polyline points="1995,800 1995,793 2110,793" fill="none" stroke="#000000" stroke-width="1" stroke-linecap="square"/>
<text x="2112" y="812" fill="#000000" font-size="15" font-family="default" > CryptonA-2 SK 1p</text>
<polyline points="1995,801 1995,808 2110,808" fill="none" stroke="#000000" stroke-width="1" stroke-linecap="square"/>
<polyline points="1880,811 1880,800 1995,800" fill="none" stroke="#000000" stroke-width="1" stroke-linecap="square"/>
<text x="2112" y="827" fill="#000000" font-size="15" font-family="default" > CryptonI-1 RPro 1p</text>
<polyline points="1880,812 1880,823 2110,823" fill="none" stroke="#000000" stroke-width="1" stroke-linecap="square"/>
<polyline points="1075,843 1075,811 1880,811" fill="none" stroke="#000000" stroke-width="1" stroke-linecap="square"/>
<text x="2112" y="842" fill="#000000" font-size="15" font-family="default" > CryptonV-1 NV 1p</text>
<polyline points="1995,845 1995,838 2110,838" fill="none" stroke="#000000" stroke-width="1" stroke-linecap="square"/>
<text x="2112" y="857" fill="#000000" font-size="15" font-family="default" > CryptonF-3 PS 2p</text>
<polyline points="1995,846 1995,853 2110,853" fill="none" stroke="#000000" stroke-width="1" stroke-linecap="square"/>
<polyline points="1190,875 1190,845 1995,845" fill="none" stroke="#000000" stroke-width="1" stroke-linecap="square"/>
<text x="2112" y="872" fill="#000000" font-size="15" font-family="default" > CryptonH-1 DR 1p</text>
<polyline points="1305,905 1305,868 2110,868" fill="none" stroke="#000000" stroke-width="1" stroke-linecap="square"/>
<text x="2112" y="887" fill="#000000" font-size="15" font-family="default" > CryptonH-9 HM 1p</text>
<polyline points="1995,890 1995,883 2110,883" fill="none" stroke="#000000" stroke-width="1" stroke-linecap="square"/>
<text x="2112" y="902" fill="#000000" font-size="15" font-family="default" > CryptonH-3 HM 1p</text>
<polyline points="1995,891 1995,898 2110,898" fill="none" stroke="#000000" stroke-width="1" stroke-linecap="square"/>
<polyline points="1880,901 1880,890 1995,890" fill="none" stroke="#000000" stroke-width="1" stroke-linecap="square"/>
<text x="2112" y="917" fill="#000000" font-size="15" font-family="default" > CryptonH-2 HM 1p</text>
<polyline points="1880,902 1880,913 2110,913" fill="none" stroke="#000000" stroke-width="1" stroke-linecap="square"/>
<polyline points="1420,943 1420,901 1880,901" fill="none" stroke="#000000" stroke-width="1" stroke-linecap="square"/>
<text x="2112" y="932" fill="#000000" font-size="15" font-family="default" > CryptonH-4 HM 1p</text>
<polyline points="1995,935 1995,928 2110,928" fill="none" stroke="#000000" stroke-width="1" stroke-linecap="square"/>
<text x="2112" y="947" fill="#000000" font-size="15" font-family="default" > CryptonH-5 HM 1p</text>
<polyline points="1995,936 1995,943 2110,943" fill="none" stroke="#000000" stroke-width="1" stroke-linecap="square"/>
<polyline points="1880,946 1880,935 1995,935" fill="none" stroke="#000000" stroke-width="1" stroke-linecap="square"/>
<text x="2112" y="962" fill="#000000" font-size="15" font-family="default" > CryptonH-1 HM 1p</text>
<polyline points="1880,947 1880,958 2110,958" fill="none" stroke="#000000" stroke-width="1" stroke-linecap="square"/>
<polyline points="1765,959 1765,946 1880,946" fill="none" stroke="#000000" stroke-width="1" stroke-linecap="square"/>
<text x="2112" y="977" fill="#000000" font-size="15" font-family="default" > CryptonH-13 HM 1p</text>
<polyline points="1765,960 1765,973 2110,973" fill="none" stroke="#000000" stroke-width="1" stroke-linecap="square"/>
<polyline points="1535,986 1535,959 1765,959" fill="none" stroke="#000000" stroke-width="1" stroke-linecap="square"/>
<text x="2112" y="992" fill="#000000" font-size="15" font-family="default" > CryptonH-11 HM 1p</text>
<polyline points="1995,995 1995,988 2110,988" fill="none" stroke="#000000" stroke-width="1" stroke-linecap="square"/>
<text x="2112" y="1007" fill="#000000" font-size="15" font-family="default" > CryptonH-8 HM 1p</text>
<polyline points="1995,996 1995,1003 2110,1003" fill="none" stroke="#000000" stroke-width="1" stroke-linecap="square"/>
<polyline points="1650,1013 1650,995 1995,995" fill="none" stroke="#000000" stroke-width="1" stroke-linecap="square"/>
<text x="2112" y="1022" fill="#000000" font-size="15" font-family="default" > CryptonH-7 HM 1p</text>
<polyline points="1765,1031 1765,1018 2110,1018" fill="none" stroke="#000000" stroke-width="1" stroke-linecap="square"/>
<text x="2112" y="1037" fill="#000000" font-size="15" font-family="default" > CryptonH-10 HM 1p</text>
<polyline points="1880,1044 1880,1033 2110,1033" fill="none" stroke="#000000" stroke-width="1" stroke-linecap="square"/>
<text x="2112" y="1052" fill="#000000" font-size="15" font-family="default" > CryptonH-6 HM 1p</text>
<polyline points="1995,1055 1995,1048 2110,1048" fill="none" stroke="#000000" stroke-width="1" stroke-linecap="square"/>
<text x="2112" y="1067" fill="#000000" font-size="15" font-family="default" > CryptonH-6 HM 2p</text>
<polyline points="1995,1056 1995,1063 2110,1063" fill="none" stroke="#000000" stroke-width="1" stroke-linecap="square"/>
<polyline points="1880,1045 1880,1055 1995,1055" fill="none" stroke="#000000" stroke-width="1" stroke-linecap="square"/>
<polyline points="1765,1032 1765,1044 1880,1044" fill="none" stroke="#000000" stroke-width="1" stroke-linecap="square"/>
<polyline points="1650,1014 1650,1031 1765,1031" fill="none" stroke="#000000" stroke-width="1" stroke-linecap="square"/>
<polyline points="1535,987 1535,1013 1650,1013" fill="none" stroke="#000000" stroke-width="1" stroke-linecap="square"/>
<polyline points="1420,944 1420,986 1535,986" fill="none" stroke="#000000" stroke-width="1" stroke-linecap="square"/>
<polyline points="1305,906 1305,943 1420,943" fill="none" stroke="#000000" stroke-width="1" stroke-linecap="square"/>
<polyline points="1190,876 1190,905 1305,905" fill="none" stroke="#000000" stroke-width="1" stroke-linecap="square"/>
<polyline points="1075,844 1075,875 1190,875" fill="none" stroke="#000000" stroke-width="1" stroke-linecap="square"/>
<polyline points="40,745 40,843 1075,843" fill="none" stroke="#000000" stroke-width="1" stroke-linecap="square"/>
<text x="1975" y="599" fill="#4A4A4A" font-size="11" font-family="MS Sans Serif" >26</text>
<text x="1968" y="404" fill="#4A4A4A" font-size="11" font-family="MS Sans Serif" >100</text>
<text x="1860" y="415" fill="#4A4A4A" font-size="11" font-family="MS Sans Serif" >93</text>
<text x="1975" y="479" fill="#4A4A4A" font-size="11" font-family="MS Sans Serif" >63</text>
<text x="1853" y="468" fill="#4A4A4A" font-size="11" font-family="MS Sans Serif" >100</text>
<text x="1745" y="455" fill="#4A4A4A" font-size="11" font-family="MS Sans Serif" >26</text>
<text x="1637" y="435" fill="#4A4A4A" font-size="11" font-family="MS Sans Serif" >8</text>
<text x="1975" y="359" fill="#4A4A4A" font-size="11" font-family="MS Sans Serif" >91</text>
<text x="1860" y="348" fill="#4A4A4A" font-size="11" font-family="MS Sans Serif" >51</text>
<text x="1975" y="299" fill="#4A4A4A" font-size="11" font-family="MS Sans Serif" >45</text>
<text x="1975" y="269" fill="#4A4A4A" font-size="11" font-family="MS Sans Serif" >93</text>
<text x="1860" y="258" fill="#4A4A4A" font-size="11" font-family="MS Sans Serif" >74</text>
<text x="1975" y="224" fill="#4A4A4A" font-size="11" font-family="MS Sans Serif" >99</text>
<text x="1860" y="213" fill="#4A4A4A" font-size="11" font-family="MS Sans Serif" >88</text>
<text x="1968" y="179" fill="#4A4A4A" font-size="11" font-family="MS Sans Serif" >100</text>
<text x="1860" y="168" fill="#4A4A4A" font-size="11" font-family="MS Sans Serif" >98</text>
<text x="1745" y="155" fill="#4A4A4A" font-size="11" font-family="MS Sans Serif" >96</text>
<text x="1630" y="141" fill="#4A4A4A" font-size="11" font-family="MS Sans Serif" >80</text>
<text x="1975" y="29" fill="#4A4A4A" font-size="11" font-family="MS Sans Serif" >90</text>
<text x="1860" y="40" fill="#4A4A4A" font-size="11" font-family="MS Sans Serif" >68</text>
<text x="1745" y="53" fill="#4A4A4A" font-size="11" font-family="MS Sans Serif" >84</text>
<text x="1630" y="67" fill="#4A4A4A" font-size="11" font-family="MS Sans Serif" >99</text>
<text x="1515" y="82" fill="#4A4A4A" font-size="11" font-family="MS Sans Serif" >93</text>
<text x="1400" y="97" fill="#4A4A4A" font-size="11" font-family="MS Sans Serif" >77</text>
<text x="1285" y="119" fill="#4A4A4A" font-size="11" font-family="MS Sans Serif" >52</text>
<text x="1170" y="166" fill="#4A4A4A" font-size="11" font-family="MS Sans Serif" >43</text>
<text x="1055" y="212" fill="#4A4A4A" font-size="11" font-family="MS Sans Serif" >26</text>
<text x="947" y="255" fill="#4A4A4A" font-size="11" font-family="MS Sans Serif" >5</text>
<text x="832" y="288" fill="#4A4A4A" font-size="11" font-family="MS Sans Serif" >4</text>
<text x="717" y="318" fill="#4A4A4A" font-size="11" font-family="MS Sans Serif" >3</text>
<text x="602" y="350" fill="#4A4A4A" font-size="11" font-family="MS Sans Serif" >2</text>
<text x="487" y="392" fill="#4A4A4A" font-size="11" font-family="MS Sans Serif" >3</text>
<text x="1975" y="509" fill="#4A4A4A" font-size="11" font-family="MS Sans Serif" >13</text>
<text x="365" y="450" fill="#4A4A4A" font-size="11" font-family="MS Sans Serif" >11</text>
<text x="1975" y="884" fill="#4A4A4A" font-size="11" font-family="MS Sans Serif" >83</text>
<text x="1853" y="895" fill="#4A4A4A" font-size="11" font-family="MS Sans Serif" >100</text>
<text x="1975" y="929" fill="#4A4A4A" font-size="11" font-family="MS Sans Serif" >56</text>
<text x="1853" y="940" fill="#4A4A4A" font-size="11" font-family="MS Sans Serif" >100</text>
<text x="1738" y="953" fill="#4A4A4A" font-size="11" font-family="MS Sans Serif" >100</text>
<text x="1968" y="989" fill="#4A4A4A" font-size="11" font-family="MS Sans Serif" >100</text>
<text x="1968" y="1049" fill="#4A4A4A" font-size="11" font-family="MS Sans Serif" >100</text>
<text x="1860" y="1038" fill="#4A4A4A" font-size="11" font-family="MS Sans Serif" >84</text>
<text x="1745" y="1025" fill="#4A4A4A" font-size="11" font-family="MS Sans Serif" >99</text>
<text x="1623" y="1007" fill="#4A4A4A" font-size="11" font-family="MS Sans Serif" >100</text>
<text x="1515" y="980" fill="#4A4A4A" font-size="11" font-family="MS Sans Serif" >87</text>
<text x="1400" y="937" fill="#4A4A4A" font-size="11" font-family="MS Sans Serif" >55</text>
<text x="1285" y="899" fill="#4A4A4A" font-size="11" font-family="MS Sans Serif" >63</text>
<text x="1975" y="839" fill="#4A4A4A" font-size="11" font-family="MS Sans Serif" >74</text>
<text x="1170" y="869" fill="#4A4A4A" font-size="11" font-family="MS Sans Serif" >99</text>
<text x="1975" y="794" fill="#4A4A4A" font-size="11" font-family="MS Sans Serif" >96</text>
<text x="1860" y="805" fill="#4A4A4A" font-size="11" font-family="MS Sans Serif" >80</text>
<text x="1055" y="837" fill="#4A4A4A" font-size="11" font-family="MS Sans Serif" >81</text>
<text x="250" y="509" fill="#4A4A4A" font-size="11" font-family="MS Sans Serif" >13</text>
<text x="1968" y="539" fill="#4A4A4A" font-size="11" font-family="MS Sans Serif" >100</text>
<text x="1170" y="569" fill="#4A4A4A" font-size="11" font-family="MS Sans Serif" >66</text>
<text x="1975" y="569" fill="#4A4A4A" font-size="11" font-family="MS Sans Serif" >99</text>
<text x="1285" y="600" fill="#4A4A4A" font-size="11" font-family="MS Sans Serif" >50</text>
<text x="1400" y="631" fill="#4A4A4A" font-size="11" font-family="MS Sans Serif" >18</text>
<text x="1975" y="689" fill="#4A4A4A" font-size="11" font-family="MS Sans Serif" >66</text>
<text x="1975" y="719" fill="#4A4A4A" font-size="11" font-family="MS Sans Serif" >99</text>
<text x="1975" y="749" fill="#4A4A4A" font-size="11" font-family="MS Sans Serif" >52</text>
<text x="1860" y="734" fill="#4A4A4A" font-size="11" font-family="MS Sans Serif" >50</text>
<text x="1745" y="711" fill="#4A4A4A" font-size="11" font-family="MS Sans Serif" >90</text>
<text x="1630" y="689" fill="#4A4A4A" font-size="11" font-family="MS Sans Serif" >86</text>
<text x="1515" y="664" fill="#4A4A4A" font-size="11" font-family="MS Sans Serif" >19</text>
<text x="1975" y="629" fill="#4A4A4A" font-size="11" font-family="MS Sans Serif" >17</text>
<text x="1867" y="640" fill="#4A4A4A" font-size="11" font-family="MS Sans Serif" >9</text>
</svg>
