<svg xmlns="http://www.w3.org/2000/svg" xmlns:xlink="http://www.w3.org/1999/xlink" version="1.1" width="576" height="1820" name="phyla_branchl_bs .svg" y="0" viewBox="0 0 576 1820">
<polyline points="576,1820 0,1820 0,0 576,0 576,1820" fill="white" />
<text x="199" y="37" fill="#000000" font-size="15" font-family="default" > CryptonV-3 OL 1p</text>
<polyline points="177,45 177,33 197,33" fill="none" stroke="#000000" stroke-width="1" stroke-linecap="square"/>
<text x="186" y="61" fill="#000000" font-size="15" font-family="default" > CryptV-10 CFl parRan-1</text>
<polyline points="177,46 177,57 184,57" fill="none" stroke="#000000" stroke-width="1" stroke-linecap="square"/>
<polyline points="174,63 174,45 177,45" fill="none" stroke="#000000" stroke-width="1" stroke-linecap="square"/>
<text x="189" y="85" fill="#000000" font-size="15" font-family="default" > CryptV-1 CGi gadMor-1</text>
<polyline points="174,64 174,81 187,81" fill="none" stroke="#000000" stroke-width="1" stroke-linecap="square"/>
<polyline points="172,84 172,63 174,63" fill="none" stroke="#000000" stroke-width="1" stroke-linecap="square"/>
<text x="182" y="109" fill="#000000" font-size="15" font-family="default" > CryptV-1 CGi cypCar-1</text>
<polyline points="172,85 172,105 180,105" fill="none" stroke="#000000" stroke-width="1" stroke-linecap="square"/>
<polyline points="167,106 167,84 172,84" fill="none" stroke="#000000" stroke-width="1" stroke-linecap="square"/>
<text x="185" y="133" fill="#000000" font-size="15" font-family="default" > CryptV-1 CGi gadmor-2</text>
<polyline points="167,107 167,129 183,129" fill="none" stroke="#000000" stroke-width="1" stroke-linecap="square"/>
<polyline points="153,129 153,106 167,106" fill="none" stroke="#000000" stroke-width="1" stroke-linecap="square"/>
<text x="184" y="157" fill="#000000" font-size="15" font-family="default" > CryptV-10 CFl gouWil-1</text>
<polyline points="153,130 153,153 182,153" fill="none" stroke="#000000" stroke-width="1" stroke-linecap="square"/>
<polyline points="134,153 134,129 153,129" fill="none" stroke="#000000" stroke-width="1" stroke-linecap="square"/>
<text x="182" y="181" fill="#000000" font-size="15" font-family="default" > CryptonV-2 OL 1p</text>
<polyline points="134,154 134,177 180,177" fill="none" stroke="#000000" stroke-width="1" stroke-linecap="square"/>
<polyline points="125,188 125,153 134,153" fill="none" stroke="#000000" stroke-width="1" stroke-linecap="square"/>
<text x="181" y="205" fill="#000000" font-size="15" font-family="default" > CryptonV-1 SSa 1p</text>
<polyline points="135,223 135,201 179,201" fill="none" stroke="#000000" stroke-width="1" stroke-linecap="square"/>
<text x="180" y="229" fill="#000000" font-size="15" font-family="default" > CryptV-1 CGi oryLat-1</text>
<polyline points="148,246 148,225 178,225" fill="none" stroke="#000000" stroke-width="1" stroke-linecap="square"/>
<text x="176" y="253" fill="#000000" font-size="15" font-family="default" > CryptV-10 Cfl anaTes-1 L</text>
<polyline points="163,267 163,249 174,249" fill="none" stroke="#000000" stroke-width="1" stroke-linecap="square"/>
<text x="180" y="277" fill="#000000" font-size="15" font-family="default" > CryptonV-1 DR 1p</text>
<polyline points="177,285 177,273 178,273" fill="none" stroke="#000000" stroke-width="1" stroke-linecap="square"/>
<text x="179" y="301" fill="#000000" font-size="15" font-family="default" > CryptV-1 Cgi danRer-1</text>
<polyline points="177,286 177,297 177,297" fill="none" stroke="#000000" stroke-width="1" stroke-linecap="square"/>
<polyline points="163,268 163,285 177,285" fill="none" stroke="#000000" stroke-width="1" stroke-linecap="square"/>
<polyline points="148,247 148,267 163,267" fill="none" stroke="#000000" stroke-width="1" stroke-linecap="square"/>
<polyline points="135,224 135,246 148,246" fill="none" stroke="#000000" stroke-width="1" stroke-linecap="square"/>
<polyline points="125,189 125,223 135,223" fill="none" stroke="#000000" stroke-width="1" stroke-linecap="square"/>
<polyline points="118,263 118,188 125,188" fill="none" stroke="#000000" stroke-width="1" stroke-linecap="square"/>
<text x="209" y="325" fill="#000000" font-size="15" font-family="default" > CryptonV-4 OL 1p</text>
<polyline points="137,339 137,321 207,321" fill="none" stroke="#000000" stroke-width="1" stroke-linecap="square"/>
<text x="174" y="349" fill="#000000" font-size="15" font-family="default" > CryptV-1 CGi sphOrb-1</text>
<polyline points="162,357 162,345 172,345" fill="none" stroke="#000000" stroke-width="1" stroke-linecap="square"/>
<text x="175" y="373" fill="#000000" font-size="15" font-family="default" > CryptV-1 CGi takRub-1</text>
<polyline points="162,358 162,369 173,369" fill="none" stroke="#000000" stroke-width="1" stroke-linecap="square"/>
<polyline points="137,340 137,357 162,357" fill="none" stroke="#000000" stroke-width="1" stroke-linecap="square"/>
<polyline points="118,264 118,339 137,339" fill="none" stroke="#000000" stroke-width="1" stroke-linecap="square"/>
<polyline points="107,337 107,263 118,263" fill="none" stroke="#000000" stroke-width="1" stroke-linecap="square"/>
<text x="170" y="397" fill="#000000" font-size="15" font-family="default" > CryptonV-6 OL 1p</text>
<polyline points="125,411 125,393 168,393" fill="none" stroke="#000000" stroke-width="1" stroke-linecap="square"/>
<text x="222" y="421" fill="#000000" font-size="15" font-family="default" > CryptonV-7 OL 1p</text>
<polyline points="153,429 153,417 220,417" fill="none" stroke="#000000" stroke-width="1" stroke-linecap="square"/>
<text x="212" y="445" fill="#000000" font-size="15" font-family="default" > CryptonV-5 OL 1p</text>
<polyline points="153,430 153,441 210,441" fill="none" stroke="#000000" stroke-width="1" stroke-linecap="square"/>
<polyline points="125,412 125,429 153,429" fill="none" stroke="#000000" stroke-width="1" stroke-linecap="square"/>
<polyline points="107,338 107,411 125,411" fill="none" stroke="#000000" stroke-width="1" stroke-linecap="square"/>
<polyline points="101,407 101,337 107,337" fill="none" stroke="#000000" stroke-width="1" stroke-linecap="square"/>
<text x="298" y="469" fill="#000000" font-size="15" font-family="default" > CryptonF-5 PI 1p</text>
<polyline points="131,477 131,465 296,465" fill="none" stroke="#000000" stroke-width="1" stroke-linecap="square"/>
<text x="284" y="493" fill="#000000" font-size="15" font-family="default" > CryptV-1 CGI gadMor-3</text>
<polyline points="131,478 131,489 282,489" fill="none" stroke="#000000" stroke-width="1" stroke-linecap="square"/>
<polyline points="101,408 101,477 131,477" fill="none" stroke="#000000" stroke-width="1" stroke-linecap="square"/>
<polyline points="97,460 97,407 101,407" fill="none" stroke="#000000" stroke-width="1" stroke-linecap="square"/>
<text x="179" y="517" fill="#000000" font-size="15" font-family="default" > CryptonV-1 CGi 1p</text>
<polyline points="97,461 97,513 177,513" fill="none" stroke="#000000" stroke-width="1" stroke-linecap="square"/>
<polyline points="94,507 94,460 97,460" fill="none" stroke="#000000" stroke-width="1" stroke-linecap="square"/>
<text x="162" y="541" fill="#000000" font-size="15" font-family="default" > CryptonV-3 DR 1p</text>
<polyline points="103,555 103,537 160,537" fill="none" stroke="#000000" stroke-width="1" stroke-linecap="square"/>
<text x="164" y="565" fill="#000000" font-size="15" font-family="default" > CryptonV-2 DR 1p</text>
<polyline points="122,573 122,561 162,561" fill="none" stroke="#000000" stroke-width="1" stroke-linecap="square"/>
<text x="171" y="589" fill="#000000" font-size="15" font-family="default" > CryptV-11 CFl anaTes-2 S</text>
<polyline points="122,574 122,585 169,585" fill="none" stroke="#000000" stroke-width="1" stroke-linecap="square"/>
<polyline points="103,556 103,573 122,573" fill="none" stroke="#000000" stroke-width="1" stroke-linecap="square"/>
<polyline points="94,508 94,555 103,555" fill="none" stroke="#000000" stroke-width="1" stroke-linecap="square"/>
<polyline points="85,558 85,507 94,507" fill="none" stroke="#000000" stroke-width="1" stroke-linecap="square"/>
<text x="156" y="613" fill="#000000" font-size="15" font-family="default" > CryptonV-2 CTe 1p</text>
<polyline points="85,559 85,609 154,609" fill="none" stroke="#000000" stroke-width="1" stroke-linecap="square"/>
<polyline points="83,626 83,558 85,558" fill="none" stroke="#000000" stroke-width="1" stroke-linecap="square"/>
<text x="412" y="637" fill="#000000" font-size="15" font-family="default" > CryptonS-1 PS 1p</text>
<polyline points="360,645 360,633 410,633" fill="none" stroke="#000000" stroke-width="1" stroke-linecap="square"/>
<text x="389" y="661" fill="#000000" font-size="15" font-family="default" > CryptonS-1 ALai 1p</text>
<polyline points="360,646 360,657 387,657" fill="none" stroke="#000000" stroke-width="1" stroke-linecap="square"/>
<polyline points="236,663 236,645 360,645" fill="none" stroke="#000000" stroke-width="1" stroke-linecap="square"/>
<text x="238" y="685" fill="#000000" font-size="15" font-family="default" > CryptV-1 CGi spaAur-1 S</text>
<polyline points="236,664 236,681 236,681" fill="none" stroke="#000000" stroke-width="1" stroke-linecap="square"/>
<polyline points="130,694 130,663 236,663" fill="none" stroke="#000000" stroke-width="1" stroke-linecap="square"/>
<text x="307" y="709" fill="#000000" font-size="15" font-family="default" > CryptonV-N5 DR 1p</text>
<polyline points="138,726 138,705 305,705" fill="none" stroke="#000000" stroke-width="1" stroke-linecap="square"/>
<text x="333" y="733" fill="#000000" font-size="15" font-family="default" > CryptV-11 CFl anaTes-1 S</text>
<polyline points="322,747 322,729 331,729" fill="none" stroke="#000000" stroke-width="1" stroke-linecap="square"/>
<text x="331" y="757" fill="#000000" font-size="15" font-family="default" > CryptV-10 CFl anaTes-1 S</text>
<polyline points="329,765 329,753 329,753" fill="none" stroke="#000000" stroke-width="1" stroke-linecap="square"/>
<text x="339" y="781" fill="#000000" font-size="15" font-family="default" > CryptV-12 CFl anaTes-1 S</text>
<polyline points="329,766 329,777 337,777" fill="none" stroke="#000000" stroke-width="1" stroke-linecap="square"/>
<polyline points="322,748 322,765 329,765" fill="none" stroke="#000000" stroke-width="1" stroke-linecap="square"/>
<polyline points="138,727 138,747 322,747" fill="none" stroke="#000000" stroke-width="1" stroke-linecap="square"/>
<polyline points="130,695 130,726 138,726" fill="none" stroke="#000000" stroke-width="1" stroke-linecap="square"/>
<polyline points="83,627 83,694 130,694" fill="none" stroke="#000000" stroke-width="1" stroke-linecap="square"/>
<polyline points="77,719 77,626 83,626" fill="none" stroke="#000000" stroke-width="1" stroke-linecap="square"/>
<text x="188" y="805" fill="#000000" font-size="15" font-family="default" > CryptonV-1 BTa 1p</text>
<polyline points="86,813 86,801 186,801" fill="none" stroke="#000000" stroke-width="1" stroke-linecap="square"/>
<text x="260" y="829" fill="#000000" font-size="15" font-family="default" > CryptV-1 CGi spaAur-1 L</text>
<polyline points="86,814 86,825 258,825" fill="none" stroke="#000000" stroke-width="1" stroke-linecap="square"/>
<polyline points="77,720 77,813 86,813" fill="none" stroke="#000000" stroke-width="1" stroke-linecap="square"/>
<polyline points="66,814 66,719 77,719" fill="none" stroke="#000000" stroke-width="1" stroke-linecap="square"/>
<text x="167" y="853" fill="#000000" font-size="15" font-family="default" > CryptonV-2 CFl 1p</text>
<polyline points="134,861 134,849 165,849" fill="none" stroke="#000000" stroke-width="1" stroke-linecap="square"/>
<text x="168" y="877" fill="#000000" font-size="15" font-family="default" > CryptonV-6 CFl 1p</text>
<polyline points="134,862 134,873 166,873" fill="none" stroke="#000000" stroke-width="1" stroke-linecap="square"/>
<polyline points="110,910 110,861 134,861" fill="none" stroke="#000000" stroke-width="1" stroke-linecap="square"/>
<text x="175" y="901" fill="#000000" font-size="15" font-family="default" > CryptonV-3 CFl 1p</text>
<polyline points="157,909 157,897 173,897" fill="none" stroke="#000000" stroke-width="1" stroke-linecap="square"/>
<text x="179" y="925" fill="#000000" font-size="15" font-family="default" > CryptonV-2 HSal 1p</text>
<polyline points="157,910 157,921 177,921" fill="none" stroke="#000000" stroke-width="1" stroke-linecap="square"/>
<polyline points="122,959 122,909 157,909" fill="none" stroke="#000000" stroke-width="1" stroke-linecap="square"/>
<text x="179" y="949" fill="#000000" font-size="15" font-family="default" > CryptonV-11 CFl 1p</text>
<polyline points="133,957 133,945 177,945" fill="none" stroke="#000000" stroke-width="1" stroke-linecap="square"/>
<text x="185" y="973" fill="#000000" font-size="15" font-family="default" > CryptonV-3 HSal 1p</text>
<polyline points="133,958 133,969 183,969" fill="none" stroke="#000000" stroke-width="1" stroke-linecap="square"/>
<polyline points="127,1009 127,957 133,957" fill="none" stroke="#000000" stroke-width="1" stroke-linecap="square"/>
<text x="185" y="997" fill="#000000" font-size="15" font-family="default" > CryptonV-10 CFl 1p</text>
<polyline points="138,1005 138,993 183,993" fill="none" stroke="#000000" stroke-width="1" stroke-linecap="square"/>
<text x="184" y="1021" fill="#000000" font-size="15" font-family="default" > CryptonV-5 CFl 1p</text>
<polyline points="138,1006 138,1017 182,1017" fill="none" stroke="#000000" stroke-width="1" stroke-linecap="square"/>
<polyline points="133,1023 133,1005 138,1005" fill="none" stroke="#000000" stroke-width="1" stroke-linecap="square"/>
<text x="187" y="1045" fill="#000000" font-size="15" font-family="default" > CryptonV-8 CFl 1p</text>
<polyline points="133,1024 133,1041 185,1041" fill="none" stroke="#000000" stroke-width="1" stroke-linecap="square"/>
<polyline points="131,1062 131,1023 133,1023" fill="none" stroke="#000000" stroke-width="1" stroke-linecap="square"/>
<text x="198" y="1069" fill="#000000" font-size="15" font-family="default" > CryptonV-7 CFl 1p</text>
<polyline points="141,1101 141,1065 196,1065" fill="none" stroke="#000000" stroke-width="1" stroke-linecap="square"/>
<text x="176" y="1093" fill="#000000" font-size="15" font-family="default" > CryptonV-12 CFl 1p</text>
<polyline points="158,1101 158,1089 174,1089" fill="none" stroke="#000000" stroke-width="1" stroke-linecap="square"/>
<text x="179" y="1117" fill="#000000" font-size="15" font-family="default" > CryptonV-4 CFl 1p</text>
<polyline points="158,1102 158,1113 177,1113" fill="none" stroke="#000000" stroke-width="1" stroke-linecap="square"/>
<polyline points="155,1137 155,1101 158,1101" fill="none" stroke="#000000" stroke-width="1" stroke-linecap="square"/>
<text x="178" y="1141" fill="#000000" font-size="15" font-family="default" > CryptonV-1 CFl 1p</text>
<polyline points="166,1149 166,1137 176,1137" fill="none" stroke="#000000" stroke-width="1" stroke-linecap="square"/>
<text x="180" y="1165" fill="#000000" font-size="15" font-family="default" > CryptonV-1 HSal 1p</text>
<polyline points="166,1150 166,1161 178,1161" fill="none" stroke="#000000" stroke-width="1" stroke-linecap="square"/>
<polyline points="158,1173 158,1149 166,1149" fill="none" stroke="#000000" stroke-width="1" stroke-linecap="square"/>
<text x="175" y="1189" fill="#000000" font-size="15" font-family="default" > CryptonV-9 CFl 1p</text>
<polyline points="162,1197 162,1185 173,1185" fill="none" stroke="#000000" stroke-width="1" stroke-linecap="square"/>
<text x="198" y="1213" fill="#000000" font-size="15" font-family="default" > CryptonV-4 HSal 1p</text>
<polyline points="162,1198 162,1209 196,1209" fill="none" stroke="#000000" stroke-width="1" stroke-linecap="square"/>
<polyline points="158,1174 158,1197 162,1197" fill="none" stroke="#000000" stroke-width="1" stroke-linecap="square"/>
<polyline points="155,1138 155,1173 158,1173" fill="none" stroke="#000000" stroke-width="1" stroke-linecap="square"/>
<polyline points="141,1102 141,1137 155,1137" fill="none" stroke="#000000" stroke-width="1" stroke-linecap="square"/>
<polyline points="131,1063 131,1101 141,1101" fill="none" stroke="#000000" stroke-width="1" stroke-linecap="square"/>
<polyline points="127,1010 127,1062 131,1062" fill="none" stroke="#000000" stroke-width="1" stroke-linecap="square"/>
<polyline points="122,960 122,1009 127,1009" fill="none" stroke="#000000" stroke-width="1" stroke-linecap="square"/>
<polyline points="110,911 110,959 122,959" fill="none" stroke="#000000" stroke-width="1" stroke-linecap="square"/>
<polyline points="66,815 66,910 110,910" fill="none" stroke="#000000" stroke-width="1" stroke-linecap="square"/>
<polyline points="56,1023 56,814 66,814" fill="none" stroke="#000000" stroke-width="1" stroke-linecap="square"/>
<text x="216" y="1237" fill="#000000" font-size="15" font-family="default" > CryptV-11 CFl anaTes-2 L</text>
<polyline points="56,1024 56,1233 214,1233" fill="none" stroke="#000000" stroke-width="1" stroke-linecap="square"/>
<polyline points="41,1180 41,1023 56,1023" fill="none" stroke="#000000" stroke-width="1" stroke-linecap="square"/>
<text x="248" y="1261" fill="#000000" font-size="15" font-family="default" > CryptonA-1 LG 1p</text>
<polyline points="147,1269 147,1257 246,1257" fill="none" stroke="#000000" stroke-width="1" stroke-linecap="square"/>
<text x="219" y="1285" fill="#000000" font-size="15" font-family="default" > CryptonA-2 SK 1p</text>
<polyline points="147,1270 147,1281 217,1281" fill="none" stroke="#000000" stroke-width="1" stroke-linecap="square"/>
<polyline points="108,1287 108,1269 147,1269" fill="none" stroke="#000000" stroke-width="1" stroke-linecap="square"/>
<text x="219" y="1309" fill="#000000" font-size="15" font-family="default" > CryptonI-1 RPro 1p</text>
<polyline points="108,1288 108,1305 217,1305" fill="none" stroke="#000000" stroke-width="1" stroke-linecap="square"/>
<polyline points="81,1338 81,1287 108,1287" fill="none" stroke="#000000" stroke-width="1" stroke-linecap="square"/>
<text x="211" y="1333" fill="#000000" font-size="15" font-family="default" > CryptonV-1 NV 1p</text>
<polyline points="196,1341 196,1329 209,1329" fill="none" stroke="#000000" stroke-width="1" stroke-linecap="square"/>
<text x="412" y="1357" fill="#000000" font-size="15" font-family="default" > CryptonF-3 PS 2p</text>
<polyline points="196,1342 196,1353 410,1353" fill="none" stroke="#000000" stroke-width="1" stroke-linecap="square"/>
<polyline points="185,1389 185,1341 196,1341" fill="none" stroke="#000000" stroke-width="1" stroke-linecap="square"/>
<text x="365" y="1381" fill="#000000" font-size="15" font-family="default" > CryptonH-1 DR 1p</text>
<polyline points="190,1437 190,1377 363,1377" fill="none" stroke="#000000" stroke-width="1" stroke-linecap="square"/>
<text x="299" y="1405" fill="#000000" font-size="15" font-family="default" > CryptonH-9 HM 1p</text>
<polyline points="269,1413 269,1401 297,1401" fill="none" stroke="#000000" stroke-width="1" stroke-linecap="square"/>
<text x="296" y="1429" fill="#000000" font-size="15" font-family="default" > CryptonH-3 HM 1p</text>
<polyline points="269,1414 269,1425 294,1425" fill="none" stroke="#000000" stroke-width="1" stroke-linecap="square"/>
<polyline points="256,1431 256,1413 269,1413" fill="none" stroke="#000000" stroke-width="1" stroke-linecap="square"/>
<text x="302" y="1453" fill="#000000" font-size="15" font-family="default" > CryptonH-2 HM 1p</text>
<polyline points="256,1432 256,1449 300,1449" fill="none" stroke="#000000" stroke-width="1" stroke-linecap="square"/>
<polyline points="202,1498 202,1431 256,1431" fill="none" stroke="#000000" stroke-width="1" stroke-linecap="square"/>
<text x="358" y="1477" fill="#000000" font-size="15" font-family="default" > CryptonH-4 HM 1p</text>
<polyline points="316,1485 316,1473 356,1473" fill="none" stroke="#000000" stroke-width="1" stroke-linecap="square"/>
<text x="351" y="1501" fill="#000000" font-size="15" font-family="default" > CryptonH-5 HM 1p</text>
<polyline points="316,1486 316,1497 349,1497" fill="none" stroke="#000000" stroke-width="1" stroke-linecap="square"/>
<polyline points="309,1503 309,1485 316,1485" fill="none" stroke="#000000" stroke-width="1" stroke-linecap="square"/>
<text x="339" y="1525" fill="#000000" font-size="15" font-family="default" > CryptonH-1 HM 1p</text>
<polyline points="309,1504 309,1521 337,1521" fill="none" stroke="#000000" stroke-width="1" stroke-linecap="square"/>
<polyline points="257,1524 257,1503 309,1503" fill="none" stroke="#000000" stroke-width="1" stroke-linecap="square"/>
<text x="321" y="1549" fill="#000000" font-size="15" font-family="default" > CryptonH-13 HM 1p</text>
<polyline points="257,1525 257,1545 319,1545" fill="none" stroke="#000000" stroke-width="1" stroke-linecap="square"/>
<polyline points="219,1566 219,1524 257,1524" fill="none" stroke="#000000" stroke-width="1" stroke-linecap="square"/>
<text x="360" y="1573" fill="#000000" font-size="15" font-family="default" > CryptonH-11 HM 1p</text>
<polyline points="298,1581 298,1569 358,1569" fill="none" stroke="#000000" stroke-width="1" stroke-linecap="square"/>
<text x="351" y="1597" fill="#000000" font-size="15" font-family="default" > CryptonH-8 HM 1p</text>
<polyline points="298,1582 298,1593 349,1593" fill="none" stroke="#000000" stroke-width="1" stroke-linecap="square"/>
<polyline points="263,1609 263,1581 298,1581" fill="none" stroke="#000000" stroke-width="1" stroke-linecap="square"/>
<text x="324" y="1621" fill="#000000" font-size="15" font-family="default" > CryptonH-7 HM 1p</text>
<polyline points="284,1638 284,1617 322,1617" fill="none" stroke="#000000" stroke-width="1" stroke-linecap="square"/>
<text x="335" y="1645" fill="#000000" font-size="15" font-family="default" > CryptonH-10 HM 1p</text>
<polyline points="292,1659 292,1641 333,1641" fill="none" stroke="#000000" stroke-width="1" stroke-linecap="square"/>
<text x="343" y="1669" fill="#000000" font-size="15" font-family="default" > CryptonH-6 HM 1p</text>
<polyline points="341,1677 341,1665 341,1665" fill="none" stroke="#000000" stroke-width="1" stroke-linecap="square"/>
<text x="344" y="1693" fill="#000000" font-size="15" font-family="default" > CryptonH-6 HM 2p</text>
<polyline points="341,1678 341,1689 342,1689" fill="none" stroke="#000000" stroke-width="1" stroke-linecap="square"/>
<polyline points="292,1660 292,1677 341,1677" fill="none" stroke="#000000" stroke-width="1" stroke-linecap="square"/>
<polyline points="284,1639 284,1659 292,1659" fill="none" stroke="#000000" stroke-width="1" stroke-linecap="square"/>
<polyline points="263,1610 263,1638 284,1638" fill="none" stroke="#000000" stroke-width="1" stroke-linecap="square"/>
<polyline points="219,1567 219,1609 263,1609" fill="none" stroke="#000000" stroke-width="1" stroke-linecap="square"/>
<polyline points="202,1499 202,1566 219,1566" fill="none" stroke="#000000" stroke-width="1" stroke-linecap="square"/>
<polyline points="190,1438 190,1498 202,1498" fill="none" stroke="#000000" stroke-width="1" stroke-linecap="square"/>
<polyline points="185,1390 185,1437 190,1437" fill="none" stroke="#000000" stroke-width="1" stroke-linecap="square"/>
<polyline points="81,1339 81,1389 185,1389" fill="none" stroke="#000000" stroke-width="1" stroke-linecap="square"/>
<polyline points="41,1181 41,1338 81,1338" fill="none" stroke="#000000" stroke-width="1" stroke-linecap="square"/>
<text x="113" y="951" fill="#4A4A4A" font-size="11" font-family="MS Sans Serif" >26</text>
<text x="333" y="639" fill="#4A4A4A" font-size="11" font-family="MS Sans Serif" >100</text>
<text x="216" y="657" fill="#4A4A4A" font-size="11" font-family="MS Sans Serif" >93</text>
<text x="309" y="759" fill="#4A4A4A" font-size="11" font-family="MS Sans Serif" >63</text>
<text x="295" y="741" fill="#4A4A4A" font-size="11" font-family="MS Sans Serif" >100</text>
<text x="118" y="720" fill="#4A4A4A" font-size="11" font-family="MS Sans Serif" >26</text>
<text x="117" y="688" fill="#4A4A4A" font-size="11" font-family="MS Sans Serif" >8</text>
<text x="102" y="567" fill="#4A4A4A" font-size="11" font-family="MS Sans Serif" >91</text>
<text x="83" y="549" fill="#4A4A4A" font-size="11" font-family="MS Sans Serif" >51</text>
<text x="111" y="471" fill="#4A4A4A" font-size="11" font-family="MS Sans Serif" >45</text>
<text x="133" y="423" fill="#4A4A4A" font-size="11" font-family="MS Sans Serif" >93</text>
<text x="105" y="405" fill="#4A4A4A" font-size="11" font-family="MS Sans Serif" >74</text>
<text x="142" y="351" fill="#4A4A4A" font-size="11" font-family="MS Sans Serif" >99</text>
<text x="117" y="333" fill="#4A4A4A" font-size="11" font-family="MS Sans Serif" >88</text>
<text x="150" y="279" fill="#4A4A4A" font-size="11" font-family="MS Sans Serif" >100</text>
<text x="143" y="261" fill="#4A4A4A" font-size="11" font-family="MS Sans Serif" >98</text>
<text x="128" y="240" fill="#4A4A4A" font-size="11" font-family="MS Sans Serif" >96</text>
<text x="115" y="217" fill="#4A4A4A" font-size="11" font-family="MS Sans Serif" >80</text>
<text x="159" y="39" fill="#4A4A4A" font-size="11" font-family="MS Sans Serif" >90</text>
<text x="157" y="57" fill="#4A4A4A" font-size="11" font-family="MS Sans Serif" >68</text>
<text x="152" y="78" fill="#4A4A4A" font-size="11" font-family="MS Sans Serif" >84</text>
<text x="147" y="100" fill="#4A4A4A" font-size="11" font-family="MS Sans Serif" >99</text>
<text x="133" y="123" fill="#4A4A4A" font-size="11" font-family="MS Sans Serif" >93</text>
<text x="114" y="147" fill="#4A4A4A" font-size="11" font-family="MS Sans Serif" >77</text>
<text x="105" y="182" fill="#4A4A4A" font-size="11" font-family="MS Sans Serif" >52</text>
<text x="98" y="257" fill="#4A4A4A" font-size="11" font-family="MS Sans Serif" >43</text>
<text x="87" y="331" fill="#4A4A4A" font-size="11" font-family="MS Sans Serif" >26</text>
<text x="88" y="401" fill="#4A4A4A" font-size="11" font-family="MS Sans Serif" >5</text>
<text x="86" y="454" fill="#4A4A4A" font-size="11" font-family="MS Sans Serif" >4</text>
<text x="81" y="501" fill="#4A4A4A" font-size="11" font-family="MS Sans Serif" >3</text>
<text x="75" y="552" fill="#4A4A4A" font-size="11" font-family="MS Sans Serif" >2</text>
<text x="70" y="620" fill="#4A4A4A" font-size="11" font-family="MS Sans Serif" >3</text>
<text x="66" y="807" fill="#4A4A4A" font-size="11" font-family="MS Sans Serif" >13</text>
<text x="57" y="713" fill="#4A4A4A" font-size="11" font-family="MS Sans Serif" >11</text>
<text x="249" y="1407" fill="#4A4A4A" font-size="11" font-family="MS Sans Serif" >83</text>
<text x="229" y="1425" fill="#4A4A4A" font-size="11" font-family="MS Sans Serif" >100</text>
<text x="296" y="1479" fill="#4A4A4A" font-size="11" font-family="MS Sans Serif" >56</text>
<text x="282" y="1497" fill="#4A4A4A" font-size="11" font-family="MS Sans Serif" >100</text>
<text x="230" y="1518" fill="#4A4A4A" font-size="11" font-family="MS Sans Serif" >100</text>
<text x="271" y="1575" fill="#4A4A4A" font-size="11" font-family="MS Sans Serif" >100</text>
<text x="314" y="1671" fill="#4A4A4A" font-size="11" font-family="MS Sans Serif" >100</text>
<text x="272" y="1653" fill="#4A4A4A" font-size="11" font-family="MS Sans Serif" >84</text>
<text x="264" y="1632" fill="#4A4A4A" font-size="11" font-family="MS Sans Serif" >99</text>
<text x="236" y="1603" fill="#4A4A4A" font-size="11" font-family="MS Sans Serif" >100</text>
<text x="199" y="1560" fill="#4A4A4A" font-size="11" font-family="MS Sans Serif" >87</text>
<text x="182" y="1492" fill="#4A4A4A" font-size="11" font-family="MS Sans Serif" >55</text>
<text x="170" y="1431" fill="#4A4A4A" font-size="11" font-family="MS Sans Serif" >63</text>
<text x="176" y="1335" fill="#4A4A4A" font-size="11" font-family="MS Sans Serif" >74</text>
<text x="165" y="1383" fill="#4A4A4A" font-size="11" font-family="MS Sans Serif" >99</text>
<text x="127" y="1263" fill="#4A4A4A" font-size="11" font-family="MS Sans Serif" >96</text>
<text x="88" y="1281" fill="#4A4A4A" font-size="11" font-family="MS Sans Serif" >80</text>
<text x="61" y="1332" fill="#4A4A4A" font-size="11" font-family="MS Sans Serif" >81</text>
<text x="46" y="808" fill="#4A4A4A" font-size="11" font-family="MS Sans Serif" >13</text>
<text x="107" y="855" fill="#4A4A4A" font-size="11" font-family="MS Sans Serif" >100</text>
<text x="90" y="904" fill="#4A4A4A" font-size="11" font-family="MS Sans Serif" >66</text>
<text x="137" y="903" fill="#4A4A4A" font-size="11" font-family="MS Sans Serif" >99</text>
<text x="102" y="953" fill="#4A4A4A" font-size="11" font-family="MS Sans Serif" >50</text>
<text x="107" y="1003" fill="#4A4A4A" font-size="11" font-family="MS Sans Serif" >18</text>
<text x="140" y="1095" fill="#4A4A4A" font-size="11" font-family="MS Sans Serif" >66</text>
<text x="146" y="1143" fill="#4A4A4A" font-size="11" font-family="MS Sans Serif" >99</text>
<text x="142" y="1191" fill="#4A4A4A" font-size="11" font-family="MS Sans Serif" >52</text>
<text x="140" y="1167" fill="#4A4A4A" font-size="11" font-family="MS Sans Serif" >50</text>
<text x="135" y="1131" fill="#4A4A4A" font-size="11" font-family="MS Sans Serif" >90</text>
<text x="121" y="1095" fill="#4A4A4A" font-size="11" font-family="MS Sans Serif" >86</text>
<text x="111" y="1056" fill="#4A4A4A" font-size="11" font-family="MS Sans Serif" >19</text>
<text x="118" y="999" fill="#4A4A4A" font-size="11" font-family="MS Sans Serif" >17</text>
<text x="123" y="1017" fill="#4A4A4A" font-size="11" font-family="MS Sans Serif" >9</text>
<text x="136" y="960" fill="#000000" font-size="11" font-family="Tahoma" >0.5937</text>
<text x="139" y="984" fill="#000000" font-size="11" font-family="Tahoma" >0.6825</text>
<text x="366" y="648" fill="#000000" font-size="11" font-family="Tahoma" >0.6784</text>
<text x="354" y="672" fill="#000000" font-size="11" font-family="Tahoma" >0.3702</text>
<text x="216" y="696" fill="#000000" font-size="11" font-family="Tahoma" >0.0000</text>
<text x="202" y="720" fill="#000000" font-size="11" font-family="Tahoma" >2.2723</text>
<text x="307" y="744" fill="#000000" font-size="11" font-family="Tahoma" >0.1171</text>
<text x="309" y="768" fill="#000000" font-size="11" font-family="Tahoma" >0.0000</text>
<text x="313" y="792" fill="#000000" font-size="11" font-family="Tahoma" >0.1062</text>
<text x="100" y="624" fill="#000000" font-size="11" font-family="Tahoma" >0.9423</text>
<text x="123" y="576" fill="#000000" font-size="11" font-family="Tahoma" >0.5385</text>
<text x="126" y="600" fill="#000000" font-size="11" font-family="Tahoma" >0.6427</text>
<text x="112" y="552" fill="#000000" font-size="11" font-family="Tahoma" >0.7712</text>
<text x="118" y="528" fill="#000000" font-size="11" font-family="Tahoma" >1.0836</text>
<text x="194" y="480" fill="#000000" font-size="11" font-family="Tahoma" >2.2442</text>
<text x="187" y="504" fill="#000000" font-size="11" font-family="Tahoma" >2.0584</text>
<text x="127" y="408" fill="#000000" font-size="11" font-family="Tahoma" >0.5867</text>
<text x="167" y="432" fill="#000000" font-size="11" font-family="Tahoma" >0.9144</text>
<text x="162" y="456" fill="#000000" font-size="11" font-family="Tahoma" >0.7757</text>
<text x="147" y="360" fill="#000000" font-size="11" font-family="Tahoma" >0.1362</text>
<text x="148" y="384" fill="#000000" font-size="11" font-family="Tahoma" >0.1453</text>
<text x="153" y="336" fill="#000000" font-size="11" font-family="Tahoma" >0.9503</text>
<text x="143" y="240" fill="#000000" font-size="11" font-family="Tahoma" >0.4034</text>
<text x="149" y="264" fill="#000000" font-size="11" font-family="Tahoma" >0.1543</text>
<text x="158" y="288" fill="#000000" font-size="11" font-family="Tahoma" >0.0170</text>
<text x="157" y="312" fill="#000000" font-size="11" font-family="Tahoma" >0.0040</text>
<text x="138" y="216" fill="#000000" font-size="11" font-family="Tahoma" >0.5979</text>
<text x="148" y="168" fill="#000000" font-size="11" font-family="Tahoma" >0.3917</text>
<text x="155" y="144" fill="#000000" font-size="11" font-family="Tahoma" >0.2131</text>
<text x="167" y="48" fill="#000000" font-size="11" font-family="Tahoma" >0.2742</text>
<text x="161" y="72" fill="#000000" font-size="11" font-family="Tahoma" >0.1017</text>
<text x="161" y="96" fill="#000000" font-size="11" font-family="Tahoma" >0.1768</text>
<text x="156" y="120" fill="#000000" font-size="11" font-family="Tahoma" >0.1073</text>
<text x="138" y="192" fill="#000000" font-size="11" font-family="Tahoma" >0.6279</text>
<text x="117" y="816" fill="#000000" font-size="11" font-family="Tahoma" >1.3679</text>
<text x="153" y="840" fill="#000000" font-size="11" font-family="Tahoma" >2.3431</text>
<text x="257" y="1392" fill="#000000" font-size="11" font-family="Tahoma" >2.3540</text>
<text x="259" y="1464" fill="#000000" font-size="11" font-family="Tahoma" >0.5977</text>
<text x="263" y="1416" fill="#000000" font-size="11" font-family="Tahoma" >0.3869</text>
<text x="262" y="1440" fill="#000000" font-size="11" font-family="Tahoma" >0.3377</text>
<text x="303" y="1536" fill="#000000" font-size="11" font-family="Tahoma" >0.3842</text>
<text x="317" y="1488" fill="#000000" font-size="11" font-family="Tahoma" >0.5498</text>
<text x="313" y="1512" fill="#000000" font-size="11" font-family="Tahoma" >0.4522</text>
<text x="269" y="1560" fill="#000000" font-size="11" font-family="Tahoma" >0.8428</text>
<text x="309" y="1584" fill="#000000" font-size="11" font-family="Tahoma" >0.8235</text>
<text x="304" y="1608" fill="#000000" font-size="11" font-family="Tahoma" >0.6906</text>
<text x="283" y="1632" fill="#000000" font-size="11" font-family="Tahoma" >0.5146</text>
<text x="293" y="1656" fill="#000000" font-size="11" font-family="Tahoma" >0.5525</text>
<text x="321" y="1680" fill="#000000" font-size="11" font-family="Tahoma" >0.0000</text>
<text x="322" y="1704" fill="#000000" font-size="11" font-family="Tahoma" >0.0125</text>
<text x="183" y="1344" fill="#000000" font-size="11" font-family="Tahoma" >0.1781</text>
<text x="284" y="1368" fill="#000000" font-size="11" font-family="Tahoma" >2.9144</text>
<text x="177" y="1272" fill="#000000" font-size="11" font-family="Tahoma" >1.3527</text>
<text x="163" y="1296" fill="#000000" font-size="11" font-family="Tahoma" >0.9559</text>
<text x="143" y="1320" fill="#000000" font-size="11" font-family="Tahoma" >1.4896</text>
<text x="116" y="1248" fill="#000000" font-size="11" font-family="Tahoma" >2.1537</text>
<text x="130" y="864" fill="#000000" font-size="11" font-family="Tahoma" >0.4247</text>
<text x="130" y="888" fill="#000000" font-size="11" font-family="Tahoma" >0.4417</text>
<text x="145" y="912" fill="#000000" font-size="11" font-family="Tahoma" >0.2222</text>
<text x="147" y="936" fill="#000000" font-size="11" font-family="Tahoma" >0.2735</text>
<text x="146" y="1104" fill="#000000" font-size="11" font-family="Tahoma" >0.2185</text>
<text x="148" y="1128" fill="#000000" font-size="11" font-family="Tahoma" >0.2531</text>
<text x="151" y="1152" fill="#000000" font-size="11" font-family="Tahoma" >0.1314</text>
<text x="152" y="1176" fill="#000000" font-size="11" font-family="Tahoma" >0.1678</text>
<text x="148" y="1200" fill="#000000" font-size="11" font-family="Tahoma" >0.1542</text>
<text x="159" y="1224" fill="#000000" font-size="11" font-family="Tahoma" >0.4570</text>
<text x="149" y="1080" fill="#000000" font-size="11" font-family="Tahoma" >0.7562</text>
<text x="141" y="1008" fill="#000000" font-size="11" font-family="Tahoma" >0.6086</text>
<text x="141" y="1032" fill="#000000" font-size="11" font-family="Tahoma" >0.5976</text>
<text x="140" y="1056" fill="#000000" font-size="11" font-family="Tahoma" >0.7102</text>
<text x="90" y="972" fill="#000000" font-size="11" font-family="Tahoma" >0.0874</text>
<text x="279" y="660" fill="#000000" font-size="11" font-family="Tahoma" >1.6882</text>
<text x="164" y="678" fill="#000000" font-size="11" font-family="Tahoma" >1.4408</text>
<text x="286" y="780" fill="#000000" font-size="11" font-family="Tahoma" >0.0933</text>
<text x="211" y="762" fill="#000000" font-size="11" font-family="Tahoma" >2.5035</text>
<text x="95" y="741" fill="#000000" font-size="11" font-family="Tahoma" >0.1030</text>
<text x="87" y="709" fill="#000000" font-size="11" font-family="Tahoma" >0.6429</text>
<text x="79" y="588" fill="#000000" font-size="11" font-family="Tahoma" >0.2577</text>
<text x="60" y="570" fill="#000000" font-size="11" font-family="Tahoma" >0.1259</text>
<text x="88" y="492" fill="#000000" font-size="11" font-family="Tahoma" >0.4035</text>
<text x="110" y="444" fill="#000000" font-size="11" font-family="Tahoma" >0.3792</text>
<text x="82" y="426" fill="#000000" font-size="11" font-family="Tahoma" >0.2477</text>
<text x="119" y="372" fill="#000000" font-size="11" font-family="Tahoma" >0.3356</text>
<text x="94" y="354" fill="#000000" font-size="11" font-family="Tahoma" >0.2592</text>
<text x="134" y="300" fill="#000000" font-size="11" font-family="Tahoma" >0.1930</text>
<text x="120" y="282" fill="#000000" font-size="11" font-family="Tahoma" >0.2091</text>
<text x="105" y="261" fill="#000000" font-size="11" font-family="Tahoma" >0.1723</text>
<text x="92" y="238" fill="#000000" font-size="11" font-family="Tahoma" >0.1369</text>
<text x="134" y="60" fill="#000000" font-size="11" font-family="Tahoma" >0.0463</text>
<text x="131" y="78" fill="#000000" font-size="11" font-family="Tahoma" >0.0339</text>
<text x="129" y="99" fill="#000000" font-size="11" font-family="Tahoma" >0.0645</text>
<text x="124" y="121" fill="#000000" font-size="11" font-family="Tahoma" >0.1853</text>
<text x="110" y="144" fill="#000000" font-size="11" font-family="Tahoma" >0.2611</text>
<text x="91" y="168" fill="#000000" font-size="11" font-family="Tahoma" >0.1237</text>
<text x="82" y="203" fill="#000000" font-size="11" font-family="Tahoma" >0.0897</text>
<text x="75" y="278" fill="#000000" font-size="11" font-family="Tahoma" >0.1534</text>
<text x="64" y="352" fill="#000000" font-size="11" font-family="Tahoma" >0.0880</text>
<text x="58" y="422" fill="#000000" font-size="11" font-family="Tahoma" >0.0566</text>
<text x="54" y="475" fill="#000000" font-size="11" font-family="Tahoma" >0.0452</text>
<text x="51" y="522" fill="#000000" font-size="11" font-family="Tahoma" >0.1171</text>
<text x="42" y="573" fill="#000000" font-size="11" font-family="Tahoma" >0.0331</text>
<text x="40" y="641" fill="#000000" font-size="11" font-family="Tahoma" >0.0813</text>
<text x="43" y="828" fill="#000000" font-size="11" font-family="Tahoma" >0.1264</text>
<text x="34" y="734" fill="#000000" font-size="11" font-family="Tahoma" >0.1489</text>
<text x="226" y="1428" fill="#000000" font-size="11" font-family="Tahoma" >0.1819</text>
<text x="210" y="1446" fill="#000000" font-size="11" font-family="Tahoma" >0.7376</text>
<text x="273" y="1500" fill="#000000" font-size="11" font-family="Tahoma" >0.0958</text>
<text x="264" y="1518" fill="#000000" font-size="11" font-family="Tahoma" >0.7096</text>
<text x="214" y="1539" fill="#000000" font-size="11" font-family="Tahoma" >0.5136</text>
<text x="255" y="1596" fill="#000000" font-size="11" font-family="Tahoma" >0.4768</text>
<text x="297" y="1692" fill="#000000" font-size="11" font-family="Tahoma" >0.6719</text>
<text x="249" y="1674" fill="#000000" font-size="11" font-family="Tahoma" >0.1073</text>
<text x="241" y="1653" fill="#000000" font-size="11" font-family="Tahoma" >0.2910</text>
<text x="220" y="1624" fill="#000000" font-size="11" font-family="Tahoma" >0.6036</text>
<text x="176" y="1581" fill="#000000" font-size="11" font-family="Tahoma" >0.2305</text>
<text x="159" y="1513" fill="#000000" font-size="11" font-family="Tahoma" >0.1608</text>
<text x="147" y="1452" fill="#000000" font-size="11" font-family="Tahoma" >0.0724</text>
<text x="153" y="1356" fill="#000000" font-size="11" font-family="Tahoma" >0.1532</text>
<text x="114" y="1404" fill="#000000" font-size="11" font-family="Tahoma" >1.4116</text>
<text x="104" y="1284" fill="#000000" font-size="11" font-family="Tahoma" >0.5258</text>
<text x="65" y="1302" fill="#000000" font-size="11" font-family="Tahoma" >0.3698</text>
<text x="38" y="1353" fill="#000000" font-size="11" font-family="Tahoma" >0.5388</text>
<text x="13" y="1038" fill="#000000" font-size="11" font-family="Tahoma" >0.2042</text>
<text x="23" y="829" fill="#000000" font-size="11" font-family="Tahoma" >0.1335</text>
<text x="91" y="876" fill="#000000" font-size="11" font-family="Tahoma" >0.3329</text>
<text x="67" y="925" fill="#000000" font-size="11" font-family="Tahoma" >0.5993</text>
<text x="114" y="924" fill="#000000" font-size="11" font-family="Tahoma" >0.4729</text>
<text x="79" y="974" fill="#000000" font-size="11" font-family="Tahoma" >0.1589</text>
<text x="84" y="1024" fill="#000000" font-size="11" font-family="Tahoma" >0.0741</text>
<text x="115" y="1116" fill="#000000" font-size="11" font-family="Tahoma" >0.0459</text>
<text x="123" y="1164" fill="#000000" font-size="11" font-family="Tahoma" >0.1091</text>
<text x="119" y="1212" fill="#000000" font-size="11" font-family="Tahoma" >0.0579</text>
<text x="115" y="1188" fill="#000000" font-size="11" font-family="Tahoma" >0.0474</text>
<text x="112" y="1152" fill="#000000" font-size="11" font-family="Tahoma" >0.1882</text>
<text x="98" y="1116" fill="#000000" font-size="11" font-family="Tahoma" >0.1330</text>
<text x="88" y="1077" fill="#000000" font-size="11" font-family="Tahoma" >0.0578</text>
<text x="95" y="1020" fill="#000000" font-size="11" font-family="Tahoma" >0.0615</text>
<text x="90" y="1038" fill="#000000" font-size="11" font-family="Tahoma" >0.0230</text>
<line x1="60" y1="1736" x2="133" y2="1736" stroke="#000000" stroke-width="1" stroke-linecap="square"/>
<line x1="60" y1="1732" x2="60" y2="1740" stroke="#000000" stroke-width="1" stroke-linecap="square"/>
<line x1="133" y1="1732" x2="133" y2="1740" stroke="#000000" stroke-width="1" stroke-linecap="square"/>
<text x="93" y="1766" fill="#4A4A4A" font-size="11" font-family="MS Sans Serif" >1</text>
</svg>
